<?xml version="1.0" encoding="UTF-8"?>
<svg xmlns="http://www.w3.org/2000/svg" xmlns:xlink="http://www.w3.org/1999/xlink" width="4000" height="2500" viewBox="0 0 4000 2500">
<path fill="none" stroke-width="79.9994" stroke-linecap="butt" stroke-linejoin="miter" stroke="rgb(0%, 0%, 0%)" stroke-opacity="1" stroke-miterlimit="2.61313" d="M 4036.484375 13108.90625 C 4036.484375 13108.90625 7232.96875 15586.09375 14584.882812 15373.007812 C 20293.59375 18356.210938 23623.085938 18315.390625 30061.210938 16291.992188 C 30061.210938 16291.992188 32518.398438 15672.695312 33583.984375 15606.09375 C 34649.414062 15539.492188 34756.09375 15632.8125 35049.101562 15366.40625 L 34709.492188 14900.195312 L 34922.5 13801.484375 L 35455.195312 13525.117188 L 35418.59375 12326.40625 L 35551.992188 12193.203125 L 35538.398438 11473.984375 L 34965.898438 10794.6875 L 35112.304688 10621.601562 C 35112.304688 10621.601562 34632.8125 10261.992188 34646.09375 10075.507812 C 34659.609375 9889.0625 33141.09375 9755.859375 33141.09375 9755.859375 C 33141.09375 9755.859375 34093.515625 13585 30284.296875 13731.484375 C 30284.296875 13731.484375 26854.6875 14144.414062 27200.898438 9429.53125 L 12283.984375 9243.085938 C 12283.984375 9243.085938 13103.007812 13404.804688 9380.546875 13691.484375 C 9380.546875 13691.484375 5891.015625 13931.210938 6370.46875 9402.890625 C 6370.46875 9402.890625 4519.140625 9216.445312 4092.96875 9855.742188 L 4159.53125 10002.1875 L 4066.328125 10175.390625 L 4385.976562 10415.117188 L 4359.335938 11413.984375 L 4212.8125 11680.390625 C 4212.8125 11680.390625 4252.773438 12133.203125 4036.484375 13108.90625 " transform="matrix(0.1, 0, 0, -0.1, 0, 2500)"/>
<path fill="none" stroke-width="99.9978" stroke-linecap="butt" stroke-linejoin="miter" stroke="rgb(0%, 0%, 0%)" stroke-opacity="1" stroke-miterlimit="2.61313" d="M 9364.921875 12860.78125 C 10525.3125 12860.78125 11466.015625 11939.6875 11466.015625 10803.59375 C 11466.015625 9667.421875 10525.3125 8746.367188 9364.921875 8746.367188 C 8204.492188 8746.367188 7263.828125 9667.421875 7263.828125 10803.59375 C 7263.828125 11939.6875 8204.492188 12860.78125 9364.921875 12860.78125 Z M 9364.921875 12860.78125 " transform="matrix(0.1, 0, 0, -0.1, 0, 2500)"/>
<path fill-rule="evenodd" fill="rgb(0%, 0%, 0%)" fill-opacity="1" d="M 936.492188 1359.25 C 985.996094 1357.859375 1016.390625 1413.328125 988.5625 1454.019531 C 959.109375 1497.089844 891.976562 1487.109375 876.589844 1437.898438 C 864.347656 1398.738281 894.566406 1358.070312 936.492188 1359.25 Z M 936.492188 1359.25 C 920.292969 1360.511719 907.652344 1364.398438 895.453125 1375.410156 C 855.785156 1411.21875 879.867188 1476.191406 933.386719 1478.660156 C 989.121094 1481.230469 1018.351562 1415.839844 979.632812 1377.398438 C 967.25 1365.101562 953.695312 1360.589844 936.492188 1359.25 "/>
<path fill="none" stroke-width="99.9978" stroke-linecap="butt" stroke-linejoin="miter" stroke="rgb(0%, 0%, 0%)" stroke-opacity="1" stroke-miterlimit="2.61313" d="M 9364.921875 13370.390625 C 10812.8125 13370.390625 11986.484375 12221.210938 11986.484375 10803.59375 C 11986.484375 9385.976562 10812.8125 8236.796875 9364.921875 8236.796875 C 7917.070312 8236.796875 6743.359375 9385.976562 6743.359375 10803.59375 C 6743.359375 12221.210938 7917.070312 13370.390625 9364.921875 13370.390625 Z M 9364.921875 13370.390625 " transform="matrix(0.1, 0, 0, -0.1, 0, 2500)"/>
<path fill-rule="evenodd" fill="rgb(0%, 0%, 0%)" fill-opacity="1" d="M 811.820312 1270.230469 C 869.171875 1327.371094 843.167969 1296.550781 889.832031 1362.710938 C 832.480469 1305.558594 858.484375 1336.390625 811.820312 1270.230469 "/>
<path fill-rule="evenodd" fill="rgb(0%, 0%, 0%)" fill-opacity="1" d="M 889.832031 1234.371094 C 915.085938 1310.339844 905.859375 1271.550781 917.511719 1350.75 C 892.257812 1274.78125 901.484375 1313.570312 889.832031 1234.371094 "/>
<path fill-rule="evenodd" fill="rgb(0%, 0%, 0%)" fill-opacity="1" d="M 976.019531 1236.261719 C 967.769531 1312.289062 975.320312 1274.96875 953.371094 1348.238281 C 961.621094 1272.199219 954.070312 1309.519531 976.019531 1236.261719 "/>
<path fill-rule="evenodd" fill="rgb(0%, 0%, 0%)" fill-opacity="1" d="M 1052.769531 1278.398438 C 1013.191406 1334.980469 1035.628906 1308.96875 985.457031 1356.421875 C 1025.039062 1299.839844 1002.601562 1325.851562 1052.769531 1278.398438 "/>
<path fill-rule="evenodd" fill="rgb(0%, 0%, 0%)" fill-opacity="1" d="M 1104.359375 1341.941406 C 1039.011719 1380.960938 1073.191406 1364.609375 1001.808594 1391.019531 C 1067.160156 1352 1032.980469 1368.351562 1104.359375 1341.941406 "/>
<path fill-rule="evenodd" fill="rgb(0%, 0%, 0%)" fill-opacity="1" d="M 1121.980469 1424.359375 C 1047.921875 1428.828125 1084.828125 1430.089844 1011.25 1420.589844 C 1085.308594 1416.121094 1048.398438 1414.859375 1121.980469 1424.359375 "/>
<path fill-rule="evenodd" fill="rgb(0%, 0%, 0%)" fill-opacity="1" d="M 1102.46875 1507.402344 C 1032.460938 1477.480469 1065.800781 1495.519531 1002.441406 1453.300781 C 1072.449219 1483.21875 1039.109375 1465.191406 1102.46875 1507.402344 "/>
<path fill-rule="evenodd" fill="rgb(0%, 0%, 0%)" fill-opacity="1" d="M 1055.921875 1570.628906 C 1001.128906 1511.808594 1025.769531 1543.367188 981.996094 1475.949219 C 1036.789062 1534.765625 1012.148438 1503.207031 1055.921875 1570.628906 "/>
<path fill-rule="evenodd" fill="rgb(0%, 0%, 0%)" fill-opacity="1" d="M 955.574219 1489.160156 C 974.84375 1562.882812 968.65625 1525.449219 974.132812 1601.457031 C 954.863281 1527.730469 961.050781 1565.164062 955.574219 1489.160156 "/>
<path fill-rule="evenodd" fill="rgb(0%, 0%, 0%)" fill-opacity="1" d="M 924.746094 1491.988281 C 910.492188 1566.488281 920.976562 1530.210938 893.292969 1600.824219 C 907.550781 1526.328125 897.0625 1562.605469 924.746094 1491.988281 "/>
<path fill-rule="evenodd" fill="rgb(0%, 0%, 0%)" fill-opacity="1" d="M 890.777344 1480.671875 C 846.144531 1542.710938 871.097656 1513.980469 815.910156 1566.855469 C 860.542969 1504.8125 835.589844 1533.539062 890.777344 1480.671875 "/>
<path fill-rule="evenodd" fill="rgb(0%, 0%, 0%)" fill-opacity="1" d="M 863.480469 1448.269531 C 803.617188 1489.710938 835.410156 1472.410156 768.09375 1500.167969 C 827.964844 1458.71875 796.167969 1476.019531 863.480469 1448.269531 "/>
<path fill-rule="evenodd" fill="rgb(0%, 0%, 0%)" fill-opacity="1" d="M 854.914062 1423.421875 C 776.082031 1428.730469 815.402344 1429.570312 736.953125 1420.898438 C 815.78125 1415.589844 776.464844 1414.75 854.914062 1423.421875 "/>
<path fill-rule="evenodd" fill="rgb(0%, 0%, 0%)" fill-opacity="1" d="M 862.464844 1383.148438 C 794.3125 1361.910156 827.027344 1375.75 764.320312 1341.628906 C 832.472656 1362.871094 799.757812 1349.039062 862.464844 1383.148438 "/>
<path fill="none" stroke-width="99.9978" stroke-linecap="butt" stroke-linejoin="miter" stroke="rgb(0%, 0%, 0%)" stroke-opacity="1" stroke-miterlimit="2.61313" d="M 30254.21875 12958.984375 C 31482.382812 12958.984375 32478.085938 11983.984375 32478.085938 10781.40625 C 32478.085938 9578.710938 31482.382812 8603.789062 30254.21875 8603.789062 C 29025.78125 8603.789062 28030.117188 9578.710938 28030.117188 10781.40625 C 28030.117188 11983.984375 29025.78125 12958.984375 30254.21875 12958.984375 Z M 30254.21875 12958.984375 " transform="matrix(0.1, 0, 0, -0.1, 0, 2500)"/>
<path fill-rule="evenodd" fill="rgb(0%, 0%, 0%)" fill-opacity="1" d="M 3025.421875 1357.929688 C 3077.808594 1356.460938 3109.96875 1415.179688 3080.539062 1458.25 C 3049.351562 1503.84375 2978.28125 1493.28125 2962 1441.191406 C 2949.050781 1399.738281 2981.03125 1356.691406 3025.421875 1357.929688 Z M 3025.421875 1357.929688 C 3008.25 1359.269531 2994.871094 1363.378906 2981.960938 1375.039062 C 2939.980469 1412.949219 2965.460938 1481.71875 3022.109375 1484.328125 C 3081.109375 1487.050781 3112.058594 1417.839844 3071.070312 1377.148438 C 3057.960938 1364.128906 3043.628906 1359.351562 3025.421875 1357.929688 "/>
<path fill="none" stroke-width="99.9978" stroke-linecap="butt" stroke-linejoin="miter" stroke="rgb(0%, 0%, 0%)" stroke-opacity="1" stroke-miterlimit="2.61313" d="M 30254.21875 13498.398438 C 31786.71875 13498.398438 33029.101562 12281.914062 33029.101562 10781.40625 C 33029.101562 9280.78125 31786.71875 8064.375 30254.21875 8064.375 C 28721.40625 8064.375 27479.101562 9280.78125 27479.101562 10781.40625 C 27479.101562 12281.914062 28721.40625 13498.398438 30254.21875 13498.398438 Z M 30254.21875 13498.398438 " transform="matrix(0.1, 0, 0, -0.1, 0, 2500)"/>
<path fill-rule="evenodd" fill="rgb(0%, 0%, 0%)" fill-opacity="1" d="M 2893.441406 1263.699219 C 2954.148438 1324.191406 2926.621094 1291.558594 2976.019531 1361.601562 C 2915.308594 1301.101562 2942.839844 1333.730469 2893.441406 1263.699219 "/>
<path fill-rule="evenodd" fill="rgb(0%, 0%, 0%)" fill-opacity="1" d="M 2976.019531 1225.738281 C 3002.75 1306.160156 2992.988281 1265.101562 3005.320312 1348.941406 C 2978.589844 1268.519531 2988.351562 1309.589844 2976.019531 1225.738281 "/>
<path fill-rule="evenodd" fill="rgb(0%, 0%, 0%)" fill-opacity="1" d="M 3067.25 1227.738281 C 3058.511719 1308.230469 3066.519531 1268.71875 3043.269531 1346.28125 C 3052.011719 1265.789062 3044.011719 1305.300781 3067.25 1227.738281 "/>
<path fill-rule="evenodd" fill="rgb(0%, 0%, 0%)" fill-opacity="1" d="M 3148.5 1272.359375 C 3106.601562 1332.238281 3130.339844 1304.71875 3077.230469 1354.929688 C 3119.128906 1295.050781 3095.378906 1322.578125 3148.5 1272.359375 "/>
<path fill-rule="evenodd" fill="rgb(0%, 0%, 0%)" fill-opacity="1" d="M 3203.089844 1339.621094 C 3133.929688 1380.921875 3170.109375 1363.609375 3094.558594 1391.558594 C 3163.71875 1350.261719 3127.539062 1367.570312 3203.089844 1339.621094 "/>
<path fill-rule="evenodd" fill="rgb(0%, 0%, 0%)" fill-opacity="1" d="M 3221.738281 1426.859375 C 3143.359375 1431.589844 3182.421875 1432.921875 3104.539062 1422.859375 C 3182.929688 1418.128906 3143.871094 1416.800781 3221.738281 1426.859375 "/>
<path fill-rule="evenodd" fill="rgb(0%, 0%, 0%)" fill-opacity="1" d="M 3201.089844 1514.757812 C 3126.988281 1483.089844 3162.28125 1502.179688 3095.21875 1457.488281 C 3169.328125 1489.160156 3134.039062 1470.070312 3201.089844 1514.757812 "/>
<path fill-rule="evenodd" fill="rgb(0%, 0%, 0%)" fill-opacity="1" d="M 3151.828125 1581.6875 C 3093.820312 1519.425781 3119.910156 1552.832031 3073.570312 1481.460938 C 3131.578125 1543.722656 3105.488281 1510.316406 3151.828125 1581.6875 "/>
<path fill-rule="evenodd" fill="rgb(0%, 0%, 0%)" fill-opacity="1" d="M 3045.601562 1495.449219 C 3066.011719 1573.488281 3059.46875 1533.863281 3065.261719 1614.316406 C 3044.851562 1536.277344 3051.410156 1575.898438 3045.601562 1495.449219 "/>
<path fill-rule="evenodd" fill="rgb(0%, 0%, 0%)" fill-opacity="1" d="M 3012.96875 1498.441406 C 2997.890625 1577.300781 3008.980469 1538.898438 2979.679688 1613.648438 C 2994.761719 1534.789062 2983.671875 1573.195312 3012.96875 1498.441406 "/>
<path fill-rule="evenodd" fill="rgb(0%, 0%, 0%)" fill-opacity="1" d="M 2977.019531 1486.460938 C 2929.769531 1552.128906 2956.191406 1521.71875 2897.761719 1577.691406 C 2945.011719 1512.015625 2918.589844 1542.429688 2977.019531 1486.460938 "/>
<path fill-rule="evenodd" fill="rgb(0%, 0%, 0%)" fill-opacity="1" d="M 2948.121094 1452.160156 C 2884.769531 1496.03125 2918.410156 1477.71875 2847.148438 1507.101562 C 2910.519531 1463.230469 2876.871094 1481.539062 2948.121094 1452.160156 "/>
<path fill-rule="evenodd" fill="rgb(0%, 0%, 0%)" fill-opacity="1" d="M 2939.070312 1425.859375 C 2855.621094 1431.480469 2897.230469 1432.371094 2814.179688 1423.191406 C 2897.628906 1417.570312 2856.019531 1416.679688 2939.070312 1425.859375 "/>
<path fill-rule="evenodd" fill="rgb(0%, 0%, 0%)" fill-opacity="1" d="M 2947.050781 1383.238281 C 2874.890625 1360.75 2909.539062 1375.398438 2843.148438 1339.289062 C 2915.308594 1361.769531 2880.660156 1347.121094 2947.050781 1383.238281 "/>
<path fill="none" stroke-width="79.9994" stroke-linecap="butt" stroke-linejoin="miter" stroke="rgb(0%, 0%, 0%)" stroke-opacity="1" stroke-miterlimit="2.61313" d="M 15483.59375 15006.71875 C 19992.5 17752.695312 23376.210938 17799.296875 28392.695312 16002.1875 C 28432.617188 16010.507812 28475.898438 15246.40625 15483.59375 15006.71875 " transform="matrix(0.1, 0, 0, -0.1, 0, 2500)"/>
<path fill-rule="evenodd" fill="rgb(0%, 0%, 0%)" fill-opacity="1" d="M 2498.351562 977.421875 C 2499.921875 980.210938 2540.679688 1050.859375 2539.941406 1053.828125 C 2525.320312 1112.320312 2455.859375 1247.140625 2424.191406 1304.390625 C 2376.179688 1391.171875 2269.890625 1430.96875 2174.929688 1435.289062 C 2167.730469 1435.621094 1496.011719 1471.179688 1490.898438 1467.019531 C 1484.011719 1461.398438 1477.421875 1333.351562 1477.128906 1315.351562 C 1475.738281 1231.429688 1484.699219 1116.289062 1507.589844 1036.878906 C 1509.621094 1029.820312 1531.351562 1001.898438 1536.078125 995.398438 C 1533.78125 999.109375 1510.871094 1034.191406 1510.109375 1037.539062 C 1478.761719 1175.589844 1475.710938 1319.871094 1496.898438 1459.671875 C 1695.519531 1449.21875 1976.761719 1433.871094 2174.46875 1425.890625 C 2216.03125 1424.21875 2263.460938 1413.980469 2301.929688 1398.230469 C 2359.851562 1374.519531 2394.429688 1344.621094 2424.21875 1289.648438 C 2462.921875 1218.210938 2511.511719 1129.769531 2536.460938 1053.480469 C 2510.859375 1003.441406 2523.449219 1028.558594 2498.351562 977.421875 "/>
<path fill="none" stroke-width="79.9994" stroke-linecap="butt" stroke-linejoin="miter" stroke="rgb(0%, 0%, 0%)" stroke-opacity="1" stroke-miterlimit="2.61313" d="M 6365.664062 13658.710938 C 6370.625 13667.5 5884.492188 14160.3125 4259.648438 13068.085938 L 4449.414062 12378.90625 C 4449.414062 12378.90625 5380.078125 12336.796875 6365.664062 13658.710938 Z M 6365.664062 13658.710938 " transform="matrix(0.1, 0, 0, -0.1, 0, 2500)"/>
<path fill-rule="evenodd" fill="rgb(0%, 0%, 0%)" fill-opacity="1" d="M 455.804688 1387.019531 C 533.8125 1467.46875 497.628906 1424.851562 564.355469 1514.882812 C 486.347656 1434.429688 522.53125 1477.050781 455.804688 1387.019531 "/>
<path fill="none" stroke-width="39.9997" stroke-linecap="butt" stroke-linejoin="miter" stroke="rgb(0%, 0%, 0%)" stroke-opacity="1" stroke-miterlimit="2.61313" d="M 12402.8125 13467.1875 L 14254.101562 13547.109375 C 14254.101562 13547.109375 14453.90625 13120.898438 14147.5 13047.695312 C 13841.210938 12974.414062 12835.585938 12927.8125 12835.585938 12927.8125 C 12835.585938 12927.8125 12356.210938 13160.898438 12402.8125 13467.1875 Z M 12402.8125 13467.1875 " transform="matrix(0.1, 0, 0, -0.1, 0, 2500)"/>
<path fill-rule="evenodd" fill="rgb(0%, 0%, 0%)" fill-opacity="1" d="M 1692.789062 1028.078125 C 1709.441406 1025.480469 1775.648438 1028.628906 1796.25 1029.140625 C 1995.441406 1034.058594 2198.328125 1040.609375 2396.980469 1056.03125 C 2411.339844 1057.140625 2440.589844 1058.578125 2452.878906 1062.710938 C 2380.859375 1059.980469 2308.890625 1056.949219 2236.851562 1054.390625 C 2089.539062 1049.160156 1943.269531 1042.691406 1796.058594 1034.929688 C 1775.429688 1033.839844 1709.25 1031.929688 1692.789062 1028.078125 "/>
<path fill-rule="evenodd" fill="rgb(0%, 0%, 0%)" fill-opacity="1" d="M 3444.839844 1009.101562 C 3430.941406 1011.488281 3326 1008.25 3302.128906 1008.011719 C 3184.171875 1006.828125 3061.730469 1007.128906 2943.660156 1011.339844 C 2860.5 1014.300781 2776.5 1018.710938 2695.269531 1037.890625 L 2687.019531 1039.738281 C 2708.421875 1030.300781 2731.710938 1025.558594 2754.628906 1021.378906 C 2886.960938 997.289062 3067.71875 996.179688 3204.800781 998.679688 C 3238.421875 999.289062 3421.980469 1003.050781 3444.839844 1009.101562 "/>
<path fill-rule="evenodd" fill="rgb(0%, 0%, 0%)" fill-opacity="1" d="M 3498.71875 1349.910156 C 3399.148438 1380.210938 3449.769531 1368.671875 3346.890625 1384.539062 C 3446.460938 1354.238281 3395.871094 1365.789062 3498.71875 1349.910156 "/>
<path fill="none" stroke-width="79.9994" stroke-linecap="butt" stroke-linejoin="miter" stroke="rgb(0%, 0%, 0%)" stroke-opacity="1" stroke-miterlimit="2.61313" d="M 16268.59375 15295.195312 C 19015.898438 16808.085938 21754.414062 17482.5 24790.585938 16651.796875 L 24552.8125 15674.804688 C 24552.8125 15674.804688 24576.210938 15370.3125 16268.59375 15295.195312 Z M 16268.59375 15295.195312 " transform="matrix(0.1, 0, 0, -0.1, 0, 2500)"/>
<path fill="none" stroke-width="79.9994" stroke-linecap="butt" stroke-linejoin="miter" stroke="rgb(0%, 0%, 0%)" stroke-opacity="1" stroke-miterlimit="2.61313" d="M 25161.796875 16576.015625 L 24976.210938 15711.40625 C 24970 15682.382812 27390.3125 15789.296875 27519.882812 15927.8125 C 27661.796875 16127.617188 25161.796875 16576.015625 25161.796875 16576.015625 Z M 25161.796875 16576.015625 " transform="matrix(0.1, 0, 0, -0.1, 0, 2500)"/>
<path fill-rule="evenodd" fill="rgb(0%, 0%, 0%)" fill-opacity="1" d="M 1468.710938 1004.441406 C 1455.191406 1007.46875 1338.75 1008.898438 1314.589844 1009.640625 C 1207.308594 1012.929688 1097 1017.089844 989.992188 1024.078125 C 917.328125 1028.820312 831.015625 1034.53125 761.480469 1056.390625 C 788 1042.96875 815.710938 1037.589844 844.789062 1032.5 C 960.441406 1012.230469 1099.359375 1006.179688 1217.039062 1003.699219 C 1251.171875 1002.980469 1445.878906 999.28125 1468.710938 1004.441406 "/>
<path fill-rule="evenodd" fill="rgb(0%, 0%, 0%)" fill-opacity="1" d="M 3471.191406 1420.679688 C 3386.039062 1450.980469 3429.320312 1439.441406 3341.351562 1455.308594 C 3426.5 1425.011719 3383.21875 1436.550781 3471.191406 1420.679688 "/>
<path fill-rule="evenodd" fill="rgb(0%, 0%, 0%)" fill-opacity="1" d="M 673.613281 1177.609375 C 704.34375 1148.949219 784.84375 1116.699219 827.574219 1105.238281 C 975.515625 1065.558594 1116.359375 1105.378906 1219.5 1220.128906 C 1226.058594 1227.429688 1224.429688 1225.628906 1230.328125 1233.550781 C 1221.660156 1226.011719 1213.878906 1218.289062 1205.429688 1210.578125 C 1064.398438 1082 894.363281 1071.039062 726.476562 1149.96875 C 707.988281 1158.660156 691.011719 1169.308594 673.613281 1177.609375 "/>
<path fill-rule="evenodd" fill="rgb(0%, 0%, 0%)" fill-opacity="1" d="M 2767.289062 1176.289062 C 2798.039062 1147.628906 2878.53125 1115.371094 2921.28125 1103.921875 C 3069.199219 1064.238281 3210.050781 1104.050781 3313.199219 1218.808594 C 3319.738281 1226.109375 3318.121094 1224.308594 3324.019531 1232.230469 C 3315.351562 1224.691406 3307.589844 1216.96875 3299.109375 1209.261719 C 3158.078125 1080.679688 2988.058594 1069.71875 2820.171875 1148.640625 C 2801.679688 1157.328125 2784.710938 1167.988281 2767.289062 1176.289062 "/>
<path fill-rule="evenodd" fill="rgb(70.117188%, 70.117188%, 70.117188%)" fill-opacity="1" d="M 2000 1632.613281 C 2317.921875 1632.613281 2614.488281 1636.648438 2865.050781 1643.625 C 2910.320312 1675.074219 2965.660156 1693.5625 3025.421875 1693.5625 C 3077.878906 1693.5625 3126.941406 1679.300781 3168.800781 1654.527344 C 3452.050781 1667.46875 3626.421875 1685.101562 3626.421875 1704.53125 C 3626.421875 1744.253906 2898.25 1776.453125 2000 1776.453125 C 1101.75 1776.453125 373.574219 1744.253906 373.574219 1704.53125 C 373.574219 1685.109375 547.742188 1667.488281 830.710938 1654.550781 C 863.066406 1668.539062 898.847656 1676.320312 936.492188 1676.320312 C 981.367188 1676.320312 1023.601562 1665.273438 1060.53125 1645.820312 C 1325.859375 1637.503906 1650.011719 1632.613281 2000 1632.613281 "/>
<path fill="none" stroke-width="39.9997" stroke-linecap="butt" stroke-linejoin="miter" stroke="rgb(0%, 0%, 0%)" stroke-opacity="1" stroke-miterlimit="2.61313" d="M 34922.5 13801.484375 C 34922.5 13801.484375 33503.515625 13823.007812 33503.515625 13801.484375 C 33503.515625 13779.882812 34709.492188 14900.195312 34709.492188 14900.195312 " transform="matrix(0.1, 0, 0, -0.1, 0, 2500)"/>
<path fill="none" stroke-width="5.0003" stroke-linecap="butt" stroke-linejoin="miter" stroke="rgb(13.729858%, 12.159729%, 12.548828%)" stroke-opacity="1" stroke-miterlimit="2.61313" d="M 9364.921875 8236.796875 C 10812.8125 8236.796875 11986.484375 9385.976562 11986.484375 10803.59375 C 11986.484375 12221.210938 10812.8125 13370.390625 9364.921875 13370.390625 C 7917.070312 13370.390625 6743.359375 12221.210938 6743.359375 10803.59375 C 6743.359375 9385.976562 7917.070312 8236.796875 9364.921875 8236.796875 Z M 11466.015625 10803.59375 C 11466.015625 9667.421875 10525.3125 8746.367188 9364.921875 8746.367188 C 8204.492188 8746.367188 7263.828125 9667.421875 7263.828125 10803.59375 C 7263.828125 11939.6875 8204.492188 12860.78125 9364.921875 12860.78125 C 10525.3125 12860.78125 11466.015625 11939.6875 11466.015625 10803.59375 Z M 11466.015625 10803.59375 " transform="matrix(0.1, 0, 0, -0.1, 0, 2500)"/>
<path fill="none" stroke-width="5.0003" stroke-linecap="butt" stroke-linejoin="miter" stroke="rgb(13.729858%, 12.159729%, 12.548828%)" stroke-opacity="1" stroke-miterlimit="2.61313" d="M 9364.921875 8236.796875 C 10812.8125 8236.796875 11986.484375 9385.976562 11986.484375 10803.59375 C 11986.484375 12221.210938 10812.8125 13370.390625 9364.921875 13370.390625 C 7917.070312 13370.390625 6743.359375 12221.210938 6743.359375 10803.59375 C 6743.359375 9385.976562 7917.070312 8236.796875 9364.921875 8236.796875 Z M 11466.015625 10803.59375 C 11466.015625 9667.421875 10525.3125 8746.367188 9364.921875 8746.367188 C 8204.492188 8746.367188 7263.828125 9667.421875 7263.828125 10803.59375 C 7263.828125 11939.6875 8204.492188 12860.78125 9364.921875 12860.78125 C 10525.3125 12860.78125 11466.015625 11939.6875 11466.015625 10803.59375 Z M 11466.015625 10803.59375 " transform="matrix(0.1, 0, 0, -0.1, 0, 2500)"/>
</svg>
